<svg width="358" height="296" viewBox="0 0 358 296" fill="none" xmlns="http://www.w3.org/2000/svg">
<rect width="358" height="296" rx="12" fill="white"/>
<rect x="0.5" y="0.5" width="357" height="295" rx="11.5" stroke="black" stroke-opacity="0.75" stroke-dasharray="9 9"/>
<path d="M178.386 135.017V106.892H183.159V135.017H178.386ZM166.71 123.341V118.568H194.835V123.341H166.71Z" fill="#BEBEBE"/>
<path d="M78.7795 175H73.8576L82.8189 149.545H88.5114L97.4851 175H92.5632L85.7646 154.766H85.5657L78.7795 175ZM78.9411 165.02H92.3643V168.723H78.9411V165.02ZM107.142 175.336C105.643 175.336 104.3 174.95 103.115 174.18C101.931 173.409 100.994 172.29 100.306 170.824C99.6187 169.357 99.2749 167.576 99.2749 165.479C99.2749 163.358 99.6229 161.568 100.319 160.11C101.023 158.643 101.972 157.537 103.165 156.792C104.358 156.038 105.688 155.661 107.155 155.661C108.273 155.661 109.193 155.851 109.914 156.232C110.635 156.605 111.207 157.057 111.629 157.587C112.052 158.109 112.379 158.602 112.611 159.066H112.798V149.545H117.309V175H112.885V171.992H112.611C112.379 172.456 112.044 172.949 111.604 173.471C111.165 173.985 110.585 174.424 109.864 174.789C109.143 175.153 108.236 175.336 107.142 175.336ZM108.398 171.644C109.351 171.644 110.163 171.387 110.834 170.874C111.505 170.352 112.015 169.627 112.363 168.699C112.711 167.77 112.885 166.689 112.885 165.455C112.885 164.22 112.711 163.147 112.363 162.235C112.023 161.324 111.517 160.616 110.846 160.11C110.183 159.605 109.367 159.352 108.398 159.352C107.395 159.352 106.558 159.613 105.887 160.135C105.216 160.657 104.71 161.378 104.371 162.298C104.031 163.217 103.861 164.27 103.861 165.455C103.861 166.648 104.031 167.712 104.371 168.649C104.719 169.577 105.228 170.31 105.9 170.849C106.579 171.379 107.412 171.644 108.398 171.644ZM129.188 175.336C127.689 175.336 126.346 174.95 125.161 174.18C123.976 173.409 123.04 172.29 122.352 170.824C121.665 169.357 121.321 167.576 121.321 165.479C121.321 163.358 121.669 161.568 122.365 160.11C123.069 158.643 124.018 157.537 125.211 156.792C126.404 156.038 127.734 155.661 129.201 155.661C130.319 155.661 131.239 155.851 131.96 156.232C132.681 156.605 133.253 157.057 133.675 157.587C134.098 158.109 134.425 158.602 134.657 159.066H134.843V149.545H139.355V175H134.93V171.992H134.657C134.425 172.456 134.089 172.949 133.65 173.471C133.211 173.985 132.631 174.424 131.91 174.789C131.189 175.153 130.282 175.336 129.188 175.336ZM130.444 171.644C131.397 171.644 132.209 171.387 132.88 170.874C133.551 170.352 134.06 169.627 134.408 168.699C134.756 167.77 134.93 166.689 134.93 165.455C134.93 164.22 134.756 163.147 134.408 162.235C134.069 161.324 133.563 160.616 132.892 160.11C132.229 159.605 131.413 159.352 130.444 159.352C129.441 159.352 128.604 159.613 127.933 160.135C127.262 160.657 126.756 161.378 126.417 162.298C126.077 163.217 125.907 164.27 125.907 165.455C125.907 166.648 126.077 167.712 126.417 168.649C126.765 169.577 127.274 170.31 127.945 170.849C128.625 171.379 129.458 171.644 130.444 171.644ZM156.299 175H151.377L160.338 149.545H166.031L175.005 175H170.083L163.284 154.766H163.085L156.299 175ZM156.461 165.02H169.884V168.723H156.461V165.02ZM184.662 175.336C183.162 175.336 181.82 174.95 180.635 174.18C179.45 173.409 178.514 172.29 177.826 170.824C177.138 169.357 176.794 167.576 176.794 165.479C176.794 163.358 177.142 161.568 177.838 160.11C178.543 158.643 179.491 157.537 180.685 156.792C181.878 156.038 183.208 155.661 184.674 155.661C185.793 155.661 186.713 155.851 187.434 156.232C188.154 156.605 188.726 157.057 189.149 157.587C189.571 158.109 189.899 158.602 190.131 159.066H190.317V149.545H194.829V175H190.404V171.992H190.131C189.899 172.456 189.563 172.949 189.124 173.471C188.685 173.985 188.105 174.424 187.384 174.789C186.663 175.153 185.756 175.336 184.662 175.336ZM185.917 171.644C186.87 171.644 187.682 171.387 188.353 170.874C189.025 170.352 189.534 169.627 189.882 168.699C190.23 167.77 190.404 166.689 190.404 165.455C190.404 164.22 190.23 163.147 189.882 162.235C189.542 161.324 189.037 160.616 188.366 160.11C187.703 159.605 186.887 159.352 185.917 159.352C184.915 159.352 184.078 159.613 183.407 160.135C182.735 160.657 182.23 161.378 181.89 162.298C181.551 163.217 181.381 164.27 181.381 165.455C181.381 166.648 181.551 167.712 181.89 168.649C182.238 169.577 182.748 170.31 183.419 170.849C184.098 171.379 184.931 171.644 185.917 171.644ZM206.708 175.336C205.208 175.336 203.866 174.95 202.681 174.18C201.496 173.409 200.56 172.29 199.872 170.824C199.184 169.357 198.84 167.576 198.84 165.479C198.84 163.358 199.188 161.568 199.884 160.11C200.589 158.643 201.537 157.537 202.731 156.792C203.924 156.038 205.254 155.661 206.72 155.661C207.839 155.661 208.759 155.851 209.479 156.232C210.2 156.605 210.772 157.057 211.195 157.587C211.617 158.109 211.945 158.602 212.177 159.066H212.363V149.545H216.875V175H212.45V171.992H212.177C211.945 172.456 211.609 172.949 211.17 173.471C210.731 173.985 210.151 174.424 209.43 174.789C208.709 175.153 207.802 175.336 206.708 175.336ZM207.963 171.644C208.916 171.644 209.728 171.387 210.399 170.874C211.07 170.352 211.58 169.627 211.928 168.699C212.276 167.77 212.45 166.689 212.45 165.455C212.45 164.22 212.276 163.147 211.928 162.235C211.588 161.324 211.083 160.616 210.412 160.11C209.749 159.605 208.933 159.352 207.963 159.352C206.961 159.352 206.124 159.613 205.453 160.135C204.781 160.657 204.276 161.378 203.936 162.298C203.596 163.217 203.427 164.27 203.427 165.455C203.427 166.648 203.596 167.712 203.936 168.649C204.284 169.577 204.794 170.31 205.465 170.849C206.144 171.379 206.977 171.644 207.963 171.644ZM221.669 175V155.909H226.032V159.091H226.231C226.579 157.989 227.175 157.14 228.02 156.543C228.874 155.938 229.847 155.636 230.941 155.636C231.19 155.636 231.467 155.648 231.774 155.673C232.089 155.69 232.35 155.719 232.557 155.76V159.899C232.366 159.833 232.064 159.775 231.65 159.725C231.244 159.667 230.85 159.638 230.469 159.638C229.649 159.638 228.911 159.816 228.257 160.172C227.61 160.52 227.101 161.005 226.728 161.626C226.355 162.248 226.169 162.965 226.169 163.777V175H221.669ZM243.212 175.373C241.298 175.373 239.645 174.975 238.253 174.18C236.869 173.376 235.804 172.241 235.058 170.774C234.313 169.299 233.94 167.563 233.94 165.566C233.94 163.603 234.313 161.879 235.058 160.396C235.812 158.904 236.865 157.744 238.215 156.916C239.566 156.079 241.153 155.661 242.976 155.661C244.152 155.661 245.263 155.851 246.307 156.232C247.359 156.605 248.287 157.185 249.091 157.972C249.903 158.759 250.541 159.762 251.005 160.98C251.469 162.19 251.701 163.632 251.701 165.305V166.685H236.053V163.652H247.388C247.38 162.791 247.193 162.024 246.829 161.353C246.464 160.674 245.954 160.139 245.3 159.75C244.653 159.36 243.899 159.165 243.038 159.165C242.118 159.165 241.31 159.389 240.614 159.837C239.918 160.276 239.375 160.856 238.986 161.577C238.605 162.289 238.41 163.072 238.402 163.926V166.573C238.402 167.683 238.605 168.636 239.011 169.432C239.417 170.219 239.984 170.824 240.714 171.246C241.443 171.661 242.296 171.868 243.274 171.868C243.928 171.868 244.521 171.777 245.051 171.594C245.582 171.404 246.041 171.126 246.431 170.762C246.82 170.397 247.114 169.946 247.313 169.407L251.514 169.879C251.249 170.99 250.744 171.959 249.998 172.788C249.261 173.608 248.316 174.246 247.164 174.702C246.012 175.149 244.695 175.373 243.212 175.373ZM270.596 160.955L266.494 161.403C266.378 160.988 266.175 160.599 265.885 160.234C265.604 159.87 265.222 159.576 264.742 159.352C264.261 159.128 263.673 159.016 262.977 159.016C262.041 159.016 261.253 159.219 260.615 159.625C259.986 160.031 259.675 160.558 259.683 161.204C259.675 161.759 259.878 162.211 260.292 162.559C260.715 162.907 261.411 163.192 262.38 163.416L265.637 164.112C267.443 164.502 268.785 165.119 269.664 165.964C270.55 166.809 270.998 167.915 271.006 169.283C270.998 170.484 270.646 171.545 269.95 172.464C269.262 173.376 268.305 174.089 267.078 174.602C265.852 175.116 264.444 175.373 262.853 175.373C260.516 175.373 258.635 174.884 257.21 173.906C255.785 172.92 254.935 171.549 254.662 169.792L259.049 169.37C259.248 170.231 259.671 170.882 260.317 171.321C260.963 171.76 261.804 171.98 262.84 171.98C263.909 171.98 264.767 171.76 265.413 171.321C266.068 170.882 266.395 170.339 266.395 169.693C266.395 169.146 266.184 168.694 265.761 168.338C265.347 167.982 264.7 167.708 263.822 167.518L260.566 166.834C258.734 166.453 257.38 165.811 256.501 164.908C255.623 163.996 255.188 162.844 255.196 161.452C255.188 160.276 255.507 159.257 256.153 158.395C256.808 157.525 257.715 156.854 258.875 156.381C260.044 155.901 261.39 155.661 262.915 155.661C265.152 155.661 266.913 156.137 268.197 157.09C269.49 158.043 270.289 159.331 270.596 160.955ZM289.805 160.955L285.703 161.403C285.587 160.988 285.384 160.599 285.094 160.234C284.813 159.87 284.431 159.576 283.951 159.352C283.47 159.128 282.882 159.016 282.186 159.016C281.25 159.016 280.462 159.219 279.824 159.625C279.195 160.031 278.884 160.558 278.892 161.204C278.884 161.759 279.087 162.211 279.501 162.559C279.924 162.907 280.62 163.192 281.589 163.416L284.846 164.112C286.652 164.502 287.994 165.119 288.873 165.964C289.759 166.809 290.207 167.915 290.215 169.283C290.207 170.484 289.855 171.545 289.159 172.464C288.471 173.376 287.514 174.089 286.287 174.602C285.061 175.116 283.653 175.373 282.062 175.373C279.725 175.373 277.844 174.884 276.419 173.906C274.994 172.92 274.144 171.549 273.871 169.792L278.258 169.37C278.457 170.231 278.88 170.882 279.526 171.321C280.172 171.76 281.013 171.98 282.049 171.98C283.118 171.98 283.976 171.76 284.622 171.321C285.277 170.882 285.604 170.339 285.604 169.693C285.604 169.146 285.393 168.694 284.97 168.338C284.556 167.982 283.909 167.708 283.031 167.518L279.775 166.834C277.943 166.453 276.589 165.811 275.71 164.908C274.832 163.996 274.397 162.844 274.405 161.452C274.397 160.276 274.716 159.257 275.362 158.395C276.017 157.525 276.924 156.854 278.084 156.381C279.253 155.901 280.599 155.661 282.124 155.661C284.361 155.661 286.122 156.137 287.406 157.09C288.699 158.043 289.498 159.331 289.805 160.955Z" fill="black"/>
</svg>
